<?xml version="1.0" encoding="utf-8"?>
<!-- Generator: Adobe Illustrator 16.0.0, SVG Export Plug-In . SVG Version: 6.00 Build 0)  -->
<!DOCTYPE svg PUBLIC "-//W3C//DTD SVG 1.1//EN" "http://www.w3.org/Graphics/SVG/1.1/DTD/svg11.dtd">
<svg version="1.1" id="Layer_1" xmlns="http://www.w3.org/2000/svg" xmlns:xlink="http://www.w3.org/1999/xlink" x="0px" y="0px"
	 width="800px" height="150px" viewBox="0 0 800 150" enable-background="new 0 0 800 150" xml:space="preserve">
<path fill="#00A8D6" d="M-293.797,344.783c-1.185,1.2-2.405,2.297-3.546,3.6c-31.159,31.556-60.54,65.48-87.222,100.772
	c-54.854,72.556-99.617,151.964-133.239,236.09c-14.441,36.338-26.559,73.802-36.584,111.217
	c15.272-8.775,30.792-17.043,46.434-25.002c7.832-25.761,16.105-49.821,25.022-72.377c32.258-80.907,75.406-157.326,128.303-227.295
	c25.744-34.052,54.051-66.647,83.994-97.13C-121.33,223.147,77.577,123.494,289.332,94.249
	C469.621,69.385,649.313,94.713,812,165.952L635.205-252.292c-20.217-47.819-76.41-90.301-127.844-96.651L80.329-402.148
	C187.837-266.969,256.14-108.043,282.61,57.338C64.968,87.808-139.491,189.685-293.797,344.783"/>
</svg>
