<?xml version="1.0" encoding="utf-8"?>
<!-- Generator: Adobe Illustrator 16.0.0, SVG Export Plug-In . SVG Version: 6.00 Build 0)  -->
<!DOCTYPE svg PUBLIC "-//W3C//DTD SVG 1.1//EN" "http://www.w3.org/Graphics/SVG/1.1/DTD/svg11.dtd">
<?xml-stylesheet type="text/css" href="style.css"?>
<svg version="1.1" id="Layer_1" xmlns="http://www.w3.org/2000/svg" xmlns:xlink="http://www.w3.org/1999/xlink" x="0px" y="0px"
	 width="200px" height="1200px" viewBox="0 0 200 1200" enable-background="new 0 0 200 1200" xml:space="preserve">
<path fill="#141414" d="M-6.683,964.722c-0.241,1.814-0.579,3.562-0.714,5.438c-6.323,47.722-9.557,96.331-9.557,144.358
	c0,98.735,13.223,196.799,39.182,291.655c11.283,40.921,25.317,81.293,41.128,120.254c7.48-17.597,15.508-34.916,23.842-52.048
	c-10.083-27.434-18.67-53.684-25.716-79.054c-25.032-91.174-37.697-185.593-37.697-280.808c0-46.339,3.172-93.094,9.145-139.092
	c30.1-228.937,137.098-445.438,301.313-609.387C474.079,226.485,646.258,130.781,833.767,85.967L406.876-160.457
	c-48.811-28.173-125.278-28.173-173.973,0L-171.698,73.027C9.889,119.7,173.073,212.601,304.259,338.479
	C135.748,507.338,25.398,729.404-6.683,964.722"/>
</svg>
