<?xml version="1.0" encoding="utf-8"?>
<!-- Generator: Adobe Illustrator 16.0.0, SVG Export Plug-In . SVG Version: 6.00 Build 0)  -->
<!DOCTYPE svg PUBLIC "-//W3C//DTD SVG 1.1//EN" "http://www.w3.org/Graphics/SVG/1.1/DTD/svg11.dtd">
<svg version="1.1" xmlns="http://www.w3.org/2000/svg" xmlns:xlink="http://www.w3.org/1999/xlink" x="0px" y="0px" width="500px"
	 height="500px" viewBox="0 0 500 500" enable-background="new 0 0 500 500" xml:space="preserve">
<style type="text/css">
	svg { cursor:pointer; }
</style>
<g id="bg">
	<path fill="#29ABE2" d="M500,461c0,22-18,40-40,40H40c-22,0-40-18-40-40V41C0,19,18,1,40,1h420c22,0,40,18,40,40V461z"/>
</g>
<g id="Layer_1">
	<g>
		<path d="M211.781,308.835c-1.296-3.371-2.308-7.164-3.015-11.378c-0.713-4.214-1.069-8.201-1.069-11.962
			c0-5.964,0.583-11.41,1.75-16.337c1.167-4.928,2.918-9.563,5.252-13.907s5.251-8.493,8.752-12.447
			c3.501-3.955,7.586-7.877,12.253-11.768c4.928-4.149,9.239-8.006,12.935-11.572c3.695-3.565,6.84-7.131,9.433-10.697
			c2.594-3.565,4.538-7.261,5.835-11.086c1.297-3.825,1.945-8.072,1.945-12.74c0-4.02-0.713-7.748-2.14-11.184
			c-1.426-3.436-3.475-6.386-6.127-8.85c-2.657-2.463-5.906-4.409-9.725-5.835c-3.825-1.426-8.071-2.139-12.739-2.139
			c-10.114,0-20.616,2.107-31.509,6.321c-10.892,4.214-21.2,10.6-30.925,19.157v-58.543c9.984-5.965,20.876-10.438,32.676-13.42
			c11.799-2.982,23.987-4.473,36.565-4.473c12.059,0,23.274,1.329,33.647,3.987c10.373,2.658,19.417,6.839,27.133,12.545
			c7.708,5.705,13.737,12.999,18.088,21.881c4.344,8.882,6.516,19.547,6.516,31.994c0,7.91-0.908,15.074-2.723,21.492
			c-1.815,6.418-4.474,12.48-7.975,18.186c-3.501,5.705-7.845,11.184-13.031,16.435c-5.187,5.251-11.151,10.665-17.894,16.24
			c-4.539,3.761-8.532,7.262-11.962,10.503c-3.437,3.242-6.295,6.451-8.558,9.628c-2.27,3.177-3.987,6.548-5.154,10.113
			c-1.167,3.566-1.751,7.618-1.751,12.156c0,3.112,0.415,6.289,1.265,9.53c0.843,3.242,1.978,5.965,3.403,8.169H211.781z"/>
	</g>
	<path d="M240.178,394.024c-10.373,0-18.995-3.112-25.868-9.336c-6.872-6.483-10.308-14.134-10.308-22.95
		c0-9.077,3.436-16.662,10.308-22.756c6.873-6.095,15.495-9.142,25.868-9.142c10.244,0,18.736,3.047,25.479,9.142
		c6.742,5.964,10.113,13.549,10.113,22.756c0,9.336-3.307,17.051-9.919,23.145C259.109,390.978,250.551,394.024,240.178,394.024z"/>
	<path fill="#333333" d="M240.087,384.042c-7.146,0-13.086-2.145-17.821-6.432c-4.735-4.467-7.102-9.737-7.102-15.812
		c0-6.254,2.367-11.479,7.102-15.678c4.735-4.199,10.675-6.298,17.821-6.298c7.058,0,12.908,2.099,17.554,6.298
		c4.646,4.109,6.968,9.335,6.968,15.678c0,6.432-2.278,11.747-6.834,15.945C253.13,381.943,247.233,384.042,240.087,384.042z"/>
</g>
</svg>
