<?xml version="1.0" encoding="utf-8"?>
<!-- Generator: Adobe Illustrator 16.0.0, SVG Export Plug-In . SVG Version: 6.00 Build 0)  -->
<!DOCTYPE svg PUBLIC "-//W3C//DTD SVG 1.1//EN" "http://www.w3.org/Graphics/SVG/1.1/DTD/svg11.dtd">
<svg version="1.1" xmlns="http://www.w3.org/2000/svg" xmlns:xlink="http://www.w3.org/1999/xlink" x="0px" y="0px" width="500px"
	 height="500px" viewBox="0 0 500 500" enable-background="new 0 0 500 500" xml:space="preserve">
<g id="bg">
	<path fill="#29ABE2" d="M500,461c0,22-18,40-40,40H40c-22,0-40-18-40-40V41C0,19,18,1,40,1h420c22,0,40,18,40,40V461z"/>
</g>
<g id="Layer_1">
	<g>
		<g>
			<path fill="#333333" d="M360.619,338.549L339.807,298h-64.082c0,9-6.918,15.51-15.455,15.51c-8.535,0-15.456-6.51-15.456-15.51
				h-85.525l-20.429,40.549c0,0-30.635,51.451,11.267,51.451c11.067,0,188.862,0,199.929,0
				C391.957,390,360.619,338.549,360.619,338.549z M204.629,364.344c-8.537,0-15.456-6.943-15.456-15.51
				c0-8.565,6.919-15.51,15.456-15.51c8.536,0,15.456,6.944,15.456,15.51C220.085,357.4,213.165,364.344,204.629,364.344z"/>
			<path fill="#333333" d="M260.27,282.489c-8.535,0-15.456,7.511-15.456,15.511h30.911C275.725,290,268.807,282.489,260.27,282.489
				z"/>
		</g>
		<path d="M364.055,336.524L309,228.822V113h9.658c1.897,0,3.435-1.096,3.435-3c0-1.902-1.537-3-3.435-3h-13.972H194.778h-13.504
			c-1.897,0-3.435,1.098-3.435,3c0,1.904,1.538,3,3.435,3H191v113.834L135.679,336.55c-1.346,2.281-17.416,30.233-8.475,46.072
			c3.879,6.869,11.688,10.378,22.924,10.378h199.928c11.206,0,19.039-3.49,22.852-10.325
			C381.738,366.848,365.447,338.828,364.055,336.524z M366.694,379.756c-2.509,4.495-8.105,7.244-16.639,7.244H150.128
			c-8.577,0-14.215-2.776-16.785-7.325c-5.947-10.523,4.119-32.116,8.493-39.454c0.041-0.068,0.109-0.256,0.146-0.329
			l56.253-110.614c0.245-0.483,0.766-1.076,0.766-1.618V113h102v116.661c0,0.55,0.258,1.095,0.51,1.583l55.938,108.553
			c0.038,0.075,0.141,0.383,0.184,0.453C362.125,347.605,372.563,369.234,366.694,379.756z"/>
	</g>
</g>
</svg>
