<?xml version="1.0" encoding="utf-8"?>
<!-- Generator: Adobe Illustrator 16.0.0, SVG Export Plug-In . SVG Version: 6.00 Build 0)  -->
<!DOCTYPE svg PUBLIC "-//W3C//DTD SVG 1.1//EN" "http://www.w3.org/Graphics/SVG/1.1/DTD/svg11.dtd">
<?xml-stylesheet type="text/css" href="_sprite.css" ?>
<svg version="1.1" id="Layer_1" xmlns="http://www.w3.org/2000/svg" xmlns:xlink="http://www.w3.org/1999/xlink" x="0px" y="0px"
	 width="500px" height="500px" viewBox="0 0 500 500" enable-background="new 0 0 500 500" xml:space="preserve">
	 <style type="text/css">
		 svg {cursor:pointer};
	 </style>
<g>
	<path class="icon" fill-rule="evenodd" clip-rule="evenodd" fill="#4078c0" d="M250.003,39.487c-119.191,0-215.843,96.631-215.843,215.839
		c0,95.368,61.844,176.27,147.605,204.815c10.786,1.997,14.747-4.684,14.747-10.388c0-5.145-0.198-22.149-0.293-40.183
		c-60.045,13.055-72.717-25.465-72.717-25.465c-9.819-24.951-23.966-31.583-23.966-31.583c-19.585-13.397,1.477-13.125,1.477-13.125
		c21.672,1.522,33.086,22.248,33.086,22.248c19.251,32.993,50.494,23.457,62.811,17.942c1.938-13.949,7.53-23.478,13.705-28.867
		c-47.943-5.452-98.342-23.965-98.342-106.667c0-23.564,8.433-42.819,22.241-57.935c-2.24-5.439-9.63-27.391,2.091-57.123
		c0,0,18.126-5.797,59.371,22.128c17.218-4.783,35.681-7.181,54.027-7.265c18.338,0.083,36.816,2.481,54.066,7.265
		c41.2-27.925,59.297-22.128,59.297-22.128c11.749,29.732,4.362,51.684,2.121,57.123c13.836,15.115,22.214,34.371,22.214,57.935
		c0,82.904-50.493,101.151-98.558,106.5c7.742,6.695,14.639,19.834,14.639,39.967c0,28.88-0.25,52.126-0.25,59.232
		c0,5.746,3.888,12.476,14.827,10.36c85.713-28.573,147.48-109.456,147.48-204.788C465.84,136.118,369.202,39.487,250.003,39.487z"
		/>
	<path fill="#181616" d="M115.91,349.39c-0.475,1.074-2.163,1.396-3.7,0.656c-1.567-0.705-2.443-2.165-1.938-3.24
		c0.465-1.104,2.155-1.409,3.717-0.677C115.558,346.833,116.451,348.313,115.91,349.39L115.91,349.39z M113.254,347.42"/>
	<path fill="#181616" d="M124.655,359.142c-1.03,0.95-3.044,0.509-4.409-0.998c-1.413-1.509-1.675-3.518-0.632-4.489
		c1.061-0.951,3.013-0.503,4.426,0.999C125.454,356.175,125.729,358.171,124.655,359.142L124.655,359.142z M122.595,356.929"/>
	<path fill="#181616" d="M133.164,371.567c-1.323,0.921-3.487,0.062-4.824-1.857c-1.323-1.92-1.323-4.224,0.031-5.144
		c1.337-0.922,3.469-0.092,4.823,1.808C134.515,368.329,134.515,370.632,133.164,371.567L133.164,371.567z M133.164,371.567"/>
	<path fill="#181616" d="M144.823,383.582c-1.184,1.306-3.705,0.949-5.548-0.831c-1.888-1.738-2.411-4.21-1.228-5.516
		c1.2-1.305,3.734-0.936,5.591,0.831C145.514,379.805,146.082,382.289,144.823,383.582L144.823,383.582z M144.823,383.582"/>
	<path fill="#181616" d="M160.907,390.556c-0.523,1.688-2.95,2.457-5.393,1.738c-2.443-0.739-4.039-2.721-3.546-4.426
		c0.505-1.704,2.945-2.506,5.406-1.738C159.814,386.869,161.413,388.832,160.907,390.556L160.907,390.556z M160.907,390.556"/>
	<path fill="#181616" d="M178.572,391.849c0.059,1.778-2.014,3.252-4.58,3.287c-2.58,0.055-4.67-1.384-4.698-3.136
		c0-1.801,2.027-3.26,4.608-3.301C176.467,388.65,178.572,390.081,178.572,391.849L178.572,391.849z M178.572,391.849"/>
	<path fill="#181616" d="M195.009,389.048c0.307,1.738-1.477,3.519-4.025,3.992c-2.505,0.461-4.824-0.614-5.145-2.332
		c-0.311-1.779,1.505-3.566,4.008-4.026C192.397,386.241,194.684,387.281,195.009,389.048L195.009,389.048z M195.009,389.048"/>
</g>
</svg>
