<?xml version="1.0" encoding="utf-8"?>
<!-- Generator: Adobe Illustrator 16.0.0, SVG Export Plug-In . SVG Version: 6.00 Build 0)  -->
<!DOCTYPE svg PUBLIC "-//W3C//DTD SVG 1.1//EN" "http://www.w3.org/Graphics/SVG/1.1/DTD/svg11.dtd">
<svg version="1.1"  id="icon" xmlns="http://www.w3.org/2000/svg" xmlns:xlink="http://www.w3.org/1999/xlink" x="0px" y="0px"
	 width="500px" height="500px" viewBox="0 0 500 500" enable-background="new 0 0 500 500" xml:space="preserve">

	<g>
		<path fill-rule="evenodd" clip-rule="evenodd" fill="#4078c0" d="M250.003,39.487c-119.191,0-215.843,96.631-215.843,215.839
			c0,95.368,61.844,176.27,147.605,204.815c10.786,1.997,14.747-4.684,14.747-10.388c0-5.145-0.198-22.149-0.293-40.183
			c-60.045,13.055-72.717-25.465-72.717-25.465c-9.819-24.951-23.966-31.583-23.966-31.583c-19.585-13.397,1.477-13.125,1.477-13.125
			c21.672,1.522,33.086,22.248,33.086,22.248c19.251,32.993,50.494,23.457,62.811,17.942c1.938-13.949,7.53-23.478,13.705-28.867
			c-47.943-5.452-98.342-23.965-98.342-106.667c0-23.564,8.433-42.819,22.241-57.935c-2.24-5.439-9.63-27.391,2.091-57.123
			c0,0,18.126-5.797,59.371,22.128c17.218-4.783,35.681-7.181,54.027-7.265c18.338,0.083,36.816,2.481,54.066,7.265
			c41.2-27.925,59.297-22.128,59.297-22.128c11.749,29.732,4.362,51.684,2.121,57.123c13.836,15.115,22.214,34.371,22.214,57.935
			c0,82.904-50.493,101.151-98.558,106.5c7.742,6.695,14.639,19.834,14.639,39.967c0,28.88-0.25,52.126-0.25,59.232
			c0,5.746,3.888,12.476,14.827,10.36c85.713-28.573,147.48-109.456,147.48-204.788C465.84,136.118,369.202,39.487,250.003,39.487z"
			/>
		
	</g>
</svg>
