<?xml version="1.0" encoding="utf-8"?>
<!-- Generator: Adobe Illustrator 22.0.1, SVG Export Plug-In . SVG Version: 6.00 Build 0)  -->
<svg version="1.1" id="Layer_1" xmlns="http://www.w3.org/2000/svg" xmlns:xlink="http://www.w3.org/1999/xlink" x="0px" y="0px"
	 viewBox="0 0 500 500" style="enable-background:new 0 0 500 500;" xml:space="preserve">
<style type="text/css">
	.st0{fill:#027BB5;}
	.st1{fill:#FFFFFF;}
</style>
<rect x="32" y="31.3" class="st0" width="436.2" height="436.2"/>
<path class="st1" d="M106.6,199.7h61.5v197.7h-61.5V199.7z M137.4,101.4c19.7,0,35.6,16,35.6,35.6c0,19.7-16,35.6-35.6,35.6
	c-19.7,0-35.7-16-35.7-35.6C101.8,117.4,117.7,101.4,137.4,101.4"/>
<path class="st1" d="M206.7,199.7h58.9v27h0.8c8.2-15.6,28.3-31.9,58.2-31.9c62.2,0,73.7,40.9,73.7,94.2v108.4H337v-96.1
	c0-22.9-0.5-52.4-32-52.4c-32,0-36.9,25-36.9,50.7v97.8h-61.4V199.7z"/>
</svg>
