<?xml version="1.0" encoding="utf-8"?>
<!-- Generator: Adobe Illustrator 16.0.0, SVG Export Plug-In . SVG Version: 6.00 Build 0)  -->
<!DOCTYPE svg PUBLIC "-//W3C//DTD SVG 1.1//EN" "http://www.w3.org/Graphics/SVG/1.1/DTD/svg11.dtd">
<svg version="1.1" id="Layer_1" xmlns="http://www.w3.org/2000/svg" xmlns:xlink="http://www.w3.org/1999/xlink" x="0px" y="0px"
	 width="500px" height="500px" viewBox="0 0 500 500" enable-background="new 0 0 500 500" xml:space="preserve">
<g id="bg">
	<path fill="#29ABE2" d="M500,461c0,22-18,40-40,40H40c-22,0-40-18-40-40V41C0,19,18,1,40,1h420c22,0,40,18,40,40V461z"/>
</g>
<polygon fill="#1A1A1A" points="100,64 100,376.999 150,436 400,436 400,64 "/>
<polygon points="155,433 105,374 155,374 "/>
<g>
	<rect x="130" y="118" fill="#EEEEEE" width="242" height="4"/>
	<rect x="130" y="155" fill="#EEEEEE" width="242" height="4"/>
	<rect x="130" y="191" fill="#EEEEEE" width="242" height="4"/>
	<rect x="130" y="228" fill="#EEEEEE" width="242" height="4"/>
	<rect x="130" y="265" fill="#EEEEEE" width="100" height="4"/>
	<rect x="130" y="301" fill="#EEEEEE" width="100" height="4"/>
	<rect x="130" y="338" fill="#EEEEEE" width="100" height="4"/>
</g>
</svg>
