<?xml version="1.0" encoding="utf-8"?>
<!-- Generator: Adobe Illustrator 16.0.4, SVG Export Plug-In . SVG Version: 6.00 Build 0)  -->
<!DOCTYPE svg PUBLIC "-//W3C//DTD SVG 1.1//EN" "http://www.w3.org/Graphics/SVG/1.1/DTD/svg11.dtd">
<svg version="1.1" id="Layer_1" xmlns="http://www.w3.org/2000/svg" xmlns:xlink="http://www.w3.org/1999/xlink" x="0px" y="0px"
	 width="150px" height="1200px" viewBox="0 0 150 1200" enable-background="new 0 0 150 1200" xml:space="preserve">
<path fill="#00A9D7" d="M-23.094,851.65c-0.217,1.634-0.521,3.207-0.644,4.896c-5.694,42.976-8.606,86.751-8.606,130.001
	c0,88.916,11.907,177.227,35.285,262.648c10.161,36.851,22.799,73.208,37.038,108.294c6.736-15.847,13.965-31.443,21.47-46.871
	c-9.08-24.705-16.813-48.345-23.158-71.191c-22.542-82.106-33.947-167.135-33.947-252.88c0-41.729,2.856-83.835,8.235-125.258
	c27.106-206.167,123.462-401.137,271.345-548.779c125.929-125.674,280.983-211.86,449.843-252.217L349.333-161.622
	c-43.956-25.371-112.818-25.371-156.67,0L-171.698,48.641c163.526,42.031,310.481,125.691,428.62,239.05
	C105.17,439.757,5.795,639.737-23.094,851.65"/>
</svg>
