<?xml version="1.0" encoding="utf-8"?>
<!-- Generator: Adobe Illustrator 16.0.4, SVG Export Plug-In . SVG Version: 6.00 Build 0)  -->
<?xml-stylesheet type="text/css" href="style.css"?>
<!DOCTYPE svg PUBLIC "-//W3C//DTD SVG 1.1//EN" "http://www.w3.org/Graphics/SVG/1.1/DTD/svg11.dtd">
<svg version="1.1" id="Layer_1" xmlns="http://www.w3.org/2000/svg" xmlns:xlink="http://www.w3.org/1999/xlink" x="0px" y="0px"
	 width="600px" height="475px" viewBox="0 0 600 475" enable-background="new 0 0 600 475" xml:space="preserve">
<g>
	<path fill="#33cf33" class="rg-logo" d="M258.603,91.552c13.959-28.316,33.819-53.121,59.282-70.796c-27.509-6.636-60.123-11.202-87.136-11.202
		c-37.741,0-77.915,32.26-92.516,66.349h-1.227l10.959-59.046H70.06c-2.439,14.604-4.863,28.596-7.314,41.984L6.749,330.318h81.572
		l29.206-140.602c10.35-50.527,43.987-107.697,101.816-107.697C226.237,82.02,244.494,87.189,258.603,91.552"/>
	<path fill="#33cf33" class="rg-logo" d="M420.992,72.842c-59.034,0-84.604,77.324-84.604,124.179c0,37.749,15.219,69.999,51.745,69.999
		c65.117,0,91.894-68.782,91.894-128.431C480.027,102.075,458.733,72.842,420.992,72.842 M249.341,377.797
		c32.268,13.388,63.31,24.351,98.615,24.351c86.426,0,99.2-60.262,118.684-131.477h-1.217
		c-20.679,37.738-60.252,59.656-105.296,59.656c-76.083,0-108.956-63.922-108.956-132.694c0-93.736,57.225-188.079,158.857-188.079
		c41.393,0,76.098,20.076,95.568,52.96l9.136-45.657h78.519c-2.434,8.52-6.098,23.728-10.352,43.827L533,296.229
		c-20.088,102.259-64.529,169.218-178.958,169.218c-42.597,0-85.229-6.095-125.393-21.313L249.341,377.797z"/>
</g>
</svg>
