<?xml version="1.0" standalone="no"?>
<!DOCTYPE svg PUBLIC "-//W3C//DTD SVG 20010904//EN"
 "http://www.w3.org/TR/2001/REC-SVG-20010904/DTD/svg10.dtd">
<svg version="1.0" xmlns="http://www.w3.org/2000/svg"
 width="600.000000pt" height="600.000000pt" viewBox="0 0 600.000000 600.000000"
 preserveAspectRatio="xMidYMid meet">
<metadata>
Created by potrace 1.11, written by Peter Selinger 2001-2013
</metadata>
<g transform="translate(0.000000,600.000000) scale(0.100000,-0.100000)"
fill="#000000" stroke="none">
<path d="M2258 5275 c-2 -2 -27 -6 -57 -9 -30 -4 -88 -18 -130 -32 -264 -89
-515 -302 -652 -554 -42 -79 -41 -80 -24 30 3 19 12 69 20 110 8 41 17 89 20
105 2 17 7 41 10 55 3 14 12 65 21 115 8 49 18 93 20 97 3 4 2 8 -3 9 -11 1
-743 1 -764 0 -12 -1 -19 -14 -23 -44 -7 -44 -12 -73 -21 -124 -3 -16 -10 -55
-15 -88 -18 -108 -20 -119 -35 -190 -8 -38 -16 -81 -19 -95 -4 -23 -73 -356
-81 -390 -2 -8 -17 -85 -35 -170 -41 -202 -38 -187 -50 -246 -6 -28 -13 -61
-15 -75 -3 -13 -12 -55 -20 -94 -17 -81 -52 -249 -59 -285 -2 -14 -9 -45 -15
-70 -5 -25 -12 -56 -15 -70 -2 -14 -11 -59 -20 -100 -8 -41 -17 -86 -20 -100
-2 -14 -14 -70 -26 -125 -11 -55 -23 -111 -25 -125 -3 -14 -7 -34 -9 -45 -14
-65 -36 -164 -40 -185 -2 -14 -21 -104 -41 -200 -43 -207 -57 -280 -59 -300
-1 -12 55 -14 407 -15 224 0 407 1 407 2 0 1 16 80 36 175 20 95 38 180 39
188 2 8 11 51 20 95 9 44 18 87 20 95 2 8 24 116 50 240 26 124 48 234 51 245
2 11 6 29 8 40 8 39 77 370 82 395 16 80 94 287 147 392 133 262 304 442 510
538 160 74 317 94 467 59 47 -11 123 -31 170 -46 47 -14 89 -26 93 -27 4 0 21
24 38 54 136 244 288 432 464 574 39 31 77 62 85 69 11 9 0 15 -60 29 -41 10
-91 20 -110 22 -19 3 -60 9 -90 15 -61 11 -114 19 -175 27 -22 3 -53 7 -70 9
-87 11 -399 26 -407 20z"/>
<path d="M4027 5275 c-1 -1 -36 -5 -77 -9 -102 -8 -131 -13 -235 -41 -398
-107 -728 -381 -944 -786 -168 -315 -253 -663 -254 -1039 -1 -96 11 -278 18
-290 2 -3 6 -27 9 -55 4 -27 14 -77 22 -110 9 -33 17 -67 19 -75 8 -37 61
-171 92 -235 105 -210 262 -372 450 -464 181 -89 369 -119 613 -98 370 32 712
241 899 550 12 20 24 37 26 37 5 0 -50 -204 -100 -372 -130 -430 -276 -666
-496 -797 -64 -38 -171 -85 -219 -96 -8 -1 -33 -8 -55 -13 -75 -20 -150 -26
-305 -27 -160 0 -235 6 -330 25 -172 35 -305 75 -518 157 -79 30 -145 53 -146
51 -2 -2 -44 -138 -95 -303 -50 -165 -96 -310 -102 -323 -5 -13 -7 -27 -4 -32
5 -8 196 -75 241 -85 10 -2 44 -11 76 -19 31 -8 67 -17 80 -20 12 -2 43 -9 68
-14 25 -6 63 -13 85 -16 22 -4 65 -11 95 -16 30 -5 78 -12 105 -15 28 -4 60
-8 73 -10 143 -23 684 -23 755 0 6 2 30 6 52 9 249 32 516 139 700 281 311
239 523 607 655 1135 22 85 42 170 45 188 3 18 12 65 21 105 9 39 18 81 19 92
2 11 15 74 30 140 14 66 37 174 51 240 13 66 31 149 39 185 16 70 63 293 125
590 22 102 68 322 104 490 36 168 67 316 69 330 3 14 10 43 15 65 6 22 13 54
15 70 3 17 13 64 22 105 9 41 19 89 22 105 2 17 22 97 42 178 22 89 33 151 27
154 -12 8 -755 10 -766 3 -8 -5 -38 -130 -54 -220 -10 -58 -38 -196 -42 -209
-3 -9 -22 10 -51 50 -173 242 -438 400 -743 445 -42 6 -237 13 -243 9z m343
-654 c231 -61 387 -251 423 -513 32 -236 -20 -584 -123 -827 -117 -274 -289
-452 -517 -534 -90 -33 -118 -37 -243 -42 -85 -2 -118 1 -170 17 -190 60 -307
219 -354 480 -26 145 -12 405 32 583 65 263 177 491 311 632 103 108 250 194
361 210 19 3 36 6 38 8 12 11 187 0 242 -14z"/>
</g>
</svg>
