<?xml version="1.0" encoding="utf-8"?><!DOCTYPE svg PUBLIC "-//W3C//DTD SVG 1.1//EN" "http://www.w3.org/Graphics/SVG/1.1/DTD/svg11.dtd"><svg width="1506" height="1004" viewBox="0 0 1506 1004" xmlns="http://www.w3.org/2000/svg" xmlns:xlink="http://www.w3.org/1999/xlink"><svg width="502" height="502" viewBox="-1 -1 502 502" id="about" xmlns="http://www.w3.org/2000/svg"><style>svg{cursor:pointer}</style><path fill="#29ABE2" d="M500 461c0 22-18 40-40 40H40c-22 0-40-18-40-40V41C0 19 18 1 40 1h420c22 0 40 18 40 40v420z" id="abg"/><g id="aLayer_1"><path d="M211.781 308.835c-1.296-3.371-2.308-7.164-3.015-11.378-.713-4.214-1.069-8.201-1.069-11.962 0-5.964.583-11.41 1.75-16.337 1.167-4.928 2.918-9.563 5.252-13.907s5.251-8.493 8.752-12.447c3.501-3.955 7.586-7.877 12.253-11.768 4.928-4.149 9.239-8.006 12.935-11.572 3.695-3.565 6.84-7.131 9.433-10.697 2.594-3.565 4.538-7.261 5.835-11.086 1.297-3.825 1.945-8.072 1.945-12.74 0-4.02-.713-7.748-2.14-11.184-1.426-3.436-3.475-6.386-6.127-8.85-2.657-2.463-5.906-4.409-9.725-5.835-3.825-1.426-8.071-2.139-12.739-2.139-10.114 0-20.616 2.107-31.509 6.321-10.892 4.214-21.2 10.6-30.925 19.157v-58.543c9.984-5.965 20.876-10.438 32.676-13.42 11.799-2.982 23.987-4.473 36.565-4.473 12.059 0 23.274 1.329 33.647 3.987 10.373 2.658 19.417 6.839 27.133 12.545 7.708 5.705 13.737 12.999 18.088 21.881 4.344 8.882 6.516 19.547 6.516 31.994 0 7.91-.908 15.074-2.723 21.492a72.17 72.17 0 0 1-7.975 18.186c-3.501 5.705-7.845 11.184-13.031 16.435-5.187 5.251-11.151 10.665-17.894 16.24-4.539 3.761-8.532 7.262-11.962 10.503-3.437 3.242-6.295 6.451-8.558 9.628-2.27 3.177-3.987 6.548-5.154 10.113-1.167 3.566-1.751 7.618-1.751 12.156 0 3.112.415 6.289 1.265 9.53.843 3.242 1.978 5.965 3.403 8.169h-51.151zM240.178 394.024c-10.373 0-18.995-3.112-25.868-9.336-6.872-6.483-10.308-14.134-10.308-22.95 0-9.077 3.436-16.662 10.308-22.756 6.873-6.095 15.495-9.142 25.868-9.142 10.244 0 18.736 3.047 25.479 9.142 6.742 5.964 10.113 13.549 10.113 22.756 0 9.336-3.307 17.051-9.919 23.145-6.742 6.095-15.3 9.141-25.673 9.141z"/><path fill="#333" d="M240.087 384.042c-7.146 0-13.086-2.145-17.821-6.432-4.735-4.467-7.102-9.737-7.102-15.812 0-6.254 2.367-11.479 7.102-15.678 4.735-4.199 10.675-6.298 17.821-6.298 7.058 0 12.908 2.099 17.554 6.298 4.646 4.109 6.968 9.335 6.968 15.678 0 6.432-2.278 11.747-6.834 15.945-4.645 4.2-10.542 6.299-17.688 6.299z"/></g></svg><svg width="502" height="502" viewBox="-1 -1 502 502" id="experiment" x="502" xmlns="http://www.w3.org/2000/svg"><path fill="#29ABE2" d="M500 461c0 22-18 40-40 40H40c-22 0-40-18-40-40V41C0 19 18 1 40 1h420c22 0 40 18 40 40v420z"/><g fill="#333"><path d="M360.619 338.549L339.807 298h-64.082c0 9-6.918 15.51-15.455 15.51-8.535 0-15.456-6.51-15.456-15.51h-85.525l-20.429 40.549S108.225 390 150.127 390h199.929c41.901 0 10.563-51.451 10.563-51.451zm-155.99 25.795c-8.537 0-15.456-6.943-15.456-15.51 0-8.565 6.919-15.51 15.456-15.51 8.536 0 15.456 6.944 15.456 15.51 0 8.566-6.92 15.51-15.456 15.51zM260.27 282.489c-8.535 0-15.456 7.511-15.456 15.511h30.911c0-8-6.918-15.511-15.455-15.511z"/></g><path d="M364.055 336.524L309 228.822V113h9.658c1.897 0 3.435-1.096 3.435-3 0-1.902-1.537-3-3.435-3H181.274c-1.897 0-3.435 1.098-3.435 3 0 1.904 1.538 3 3.435 3H191v113.834L135.679 336.55c-1.346 2.281-17.416 30.233-8.475 46.072 3.879 6.869 11.688 10.378 22.924 10.378h199.928c11.206 0 19.039-3.49 22.852-10.325 8.83-15.827-7.461-43.847-8.853-46.151zm2.639 43.232c-2.509 4.495-8.105 7.244-16.639 7.244H150.128c-8.577 0-14.215-2.776-16.785-7.325-5.947-10.523 4.119-32.116 8.493-39.454.041-.068.109-.256.146-.329l56.253-110.614c.245-.483.766-1.076.766-1.618V113h102v116.661c0 .55.258 1.095.51 1.583l55.938 108.553c.038.075.141.383.184.453 4.492 7.355 14.93 28.984 9.061 39.506z"/></svg><svg id="github" width="502" height="502" viewBox="-1 -1 502 502" y="502" xmlns="http://www.w3.org/2000/svg"><style>svg{cursor:pointer}</style><path fill-rule="evenodd" clip-rule="evenodd" fill="#4078c0" d="M250.003 39.487c-119.191 0-215.843 96.631-215.843 215.839 0 95.368 61.844 176.27 147.605 204.815 10.786 1.997 14.747-4.684 14.747-10.388 0-5.145-.198-22.149-.293-40.183-60.045 13.055-72.717-25.465-72.717-25.465-9.819-24.951-23.966-31.583-23.966-31.583-19.585-13.397 1.477-13.125 1.477-13.125 21.672 1.522 33.086 22.248 33.086 22.248 19.251 32.993 50.494 23.457 62.811 17.942 1.938-13.949 7.53-23.478 13.705-28.867-47.943-5.452-98.342-23.965-98.342-106.667 0-23.564 8.433-42.819 22.241-57.935-2.24-5.439-9.63-27.391 2.091-57.123 0 0 18.126-5.797 59.371 22.128 17.218-4.783 35.681-7.181 54.027-7.265 18.338.083 36.816 2.481 54.066 7.265 41.2-27.925 59.297-22.128 59.297-22.128 11.749 29.732 4.362 51.684 2.121 57.123 13.836 15.115 22.214 34.371 22.214 57.935 0 82.904-50.493 101.151-98.558 106.5 7.742 6.695 14.639 19.834 14.639 39.967 0 28.88-.25 52.126-.25 59.232 0 5.746 3.888 12.476 14.827 10.36 85.713-28.573 147.48-109.456 147.48-204.788.001-119.206-96.637-215.837-215.836-215.837z"/></svg><svg id="linkedIn" viewBox="-1 -1 502 502" width="502" height="502" x="502" y="502" xmlns="http://www.w3.org/2000/svg"><style>.dst0{fill:#027bb5}.dst1{fill:#fff}svg{cursor:pointer}</style><path class="dst0" d="M32 31.3h436.2v436.2H32z"/><path class="dst1" d="M106.6 199.7h61.5v197.7h-61.5V199.7zm30.8-98.3c19.7 0 35.6 16 35.6 35.6 0 19.7-16 35.6-35.6 35.6-19.7 0-35.7-16-35.7-35.6.1-19.6 16-35.6 35.7-35.6M206.7 199.7h58.9v27h.8c8.2-15.6 28.3-31.9 58.2-31.9 62.2 0 73.7 40.9 73.7 94.2v108.4H337v-96.1c0-22.9-.5-52.4-32-52.4-32 0-36.9 25-36.9 50.7v97.8h-61.4V199.7z"/></svg><svg id="portfolio" width="502" height="502" viewBox="-1 -1 502 502" x="1004" xmlns="http://www.w3.org/2000/svg"><style>svg{cursor:pointer}</style><g fill="#3c3"><path d="M207 223v-18h85v18h158v-79H312v-21.501L296 107h-92l-16 15.499V144H50v79h157zm-3-100h92v21h-92v-21zM292 233v17h-85v-17H50v140.5c0 11.046 8.954 20.5 20 20.5h360c11.046 0 20-9.454 20-20.5V233H292z"/><path d="M212 210h75v35h-75z"/></g></svg><svg width="502" height="502" viewBox="-1 -1 502 502" id="resume" x="1004" y="502" xmlns="http://www.w3.org/2000/svg"><style>svg{cursor:pointer}</style><path id="fpaper" fill="#33cf33" d="M100 64v312.999L150 436h250V64z"/><path id="flines" d="M155 433l-50-59h50z"/><g fill="#030303"><path d="M130 118h242v4H130zM130 155h242v4H130zM130 191h242v4H130zM130 228h242v4H130zM130 265h100v4H130zM130 301h100v4H130zM130 338h100v4H130z"/></g></svg></svg>