<svg xmlns="http://www.w3.org/2000/svg" width="500" height="500" viewBox="0 0 500 500"><style>svg{cursor:pointer}</style><path fill="#29ABE2" d="M500 461c0 22-18 40-40 40H40c-22 0-40-18-40-40V41C0 19 18 1 40 1h420c22 0 40 18 40 40v420z" id="bg"/><g id="Layer_1"><path d="M211.781 308.835c-1.296-3.371-2.308-7.164-3.015-11.378-.713-4.214-1.069-8.201-1.069-11.962 0-5.964.583-11.41 1.75-16.337 1.167-4.928 2.918-9.563 5.252-13.907s5.251-8.493 8.752-12.447c3.501-3.955 7.586-7.877 12.253-11.768 4.928-4.149 9.239-8.006 12.935-11.572 3.695-3.565 6.84-7.131 9.433-10.697 2.594-3.565 4.538-7.261 5.835-11.086 1.297-3.825 1.945-8.072 1.945-12.74 0-4.02-.713-7.748-2.14-11.184-1.426-3.436-3.475-6.386-6.127-8.85-2.657-2.463-5.906-4.409-9.725-5.835-3.825-1.426-8.071-2.139-12.739-2.139-10.114 0-20.616 2.107-31.509 6.321-10.892 4.214-21.2 10.6-30.925 19.157v-58.543c9.984-5.965 20.876-10.438 32.676-13.42 11.799-2.982 23.987-4.473 36.565-4.473 12.059 0 23.274 1.329 33.647 3.987 10.373 2.658 19.417 6.839 27.133 12.545 7.708 5.705 13.737 12.999 18.088 21.881 4.344 8.882 6.516 19.547 6.516 31.994 0 7.91-.908 15.074-2.723 21.492a72.17 72.17 0 0 1-7.975 18.186c-3.501 5.705-7.845 11.184-13.031 16.435-5.187 5.251-11.151 10.665-17.894 16.24-4.539 3.761-8.532 7.262-11.962 10.503-3.437 3.242-6.295 6.451-8.558 9.628-2.27 3.177-3.987 6.548-5.154 10.113-1.167 3.566-1.751 7.618-1.751 12.156 0 3.112.415 6.289 1.265 9.53.843 3.242 1.978 5.965 3.403 8.169h-51.151zm28.397 85.189c-10.373 0-18.995-3.112-25.868-9.336-6.872-6.483-10.308-14.134-10.308-22.95 0-9.077 3.436-16.662 10.308-22.756 6.873-6.095 15.495-9.142 25.868-9.142 10.244 0 18.736 3.047 25.479 9.142 6.742 5.964 10.113 13.549 10.113 22.756 0 9.336-3.307 17.051-9.919 23.145-6.742 6.095-15.3 9.141-25.673 9.141z"/><path fill="#333" d="M240.087 384.042c-7.146 0-13.086-2.145-17.821-6.432-4.735-4.467-7.102-9.737-7.102-15.812 0-6.254 2.367-11.479 7.102-15.678 4.735-4.199 10.675-6.298 17.821-6.298 7.058 0 12.908 2.099 17.554 6.298 4.646 4.109 6.968 9.335 6.968 15.678 0 6.432-2.278 11.747-6.834 15.945-4.645 4.2-10.542 6.299-17.688 6.299z"/></g></svg>