<svg xmlns="http://www.w3.org/2000/svg" width="500" height="500" viewBox="0 0 500 500"><path fill="#29ABE2" d="M500 461c0 22-18 40-40 40H40c-22 0-40-18-40-40V41C0 19 18 1 40 1h420c22 0 40 18 40 40v420z"/><path d="M360.619 338.549L339.807 298h-64.082c0 9-6.918 15.51-15.455 15.51-8.535 0-15.456-6.51-15.456-15.51h-85.525l-20.429 40.549S108.225 390 150.127 390h199.929c41.901 0 10.563-51.451 10.563-51.451zm-155.99 25.795c-8.537 0-15.456-6.943-15.456-15.51 0-8.565 6.919-15.51 15.456-15.51 8.536 0 15.456 6.944 15.456 15.51 0 8.566-6.92 15.51-15.456 15.51zm55.641-81.855c-8.535 0-15.456 7.511-15.456 15.511h30.911c0-8-6.918-15.511-15.455-15.511z" fill="#333"/><path d="M364.055 336.524L309 228.822V113h9.658c1.897 0 3.435-1.096 3.435-3 0-1.902-1.537-3-3.435-3H181.274c-1.897 0-3.435 1.098-3.435 3 0 1.904 1.538 3 3.435 3H191v113.834L135.679 336.55c-1.346 2.281-17.416 30.233-8.475 46.072 3.879 6.869 11.688 10.378 22.924 10.378h199.928c11.206 0 19.039-3.49 22.852-10.325 8.83-15.827-7.461-43.847-8.853-46.151zm2.639 43.232c-2.509 4.495-8.105 7.244-16.639 7.244H150.128c-8.577 0-14.215-2.776-16.785-7.325-5.947-10.523 4.119-32.116 8.493-39.454.041-.068.109-.256.146-.329l56.253-110.614c.245-.483.766-1.076.766-1.618V113h102v116.661c0 .55.258 1.095.51 1.583l55.938 108.553c.038.075.141.383.184.453 4.492 7.355 14.93 28.984 9.061 39.506z"/></svg>