<svg id="Layer_1" xmlns="http://www.w3.org/2000/svg" viewBox="0 0 500 500"><style>.st0{fill:#027bb5}.st1{fill:#fff}</style><path class="st0" d="M32 31.3h436.2v436.2H32z"/><path class="st1" d="M106.6 199.7h61.5v197.7h-61.5V199.7zm30.8-98.3c19.7 0 35.6 16 35.6 35.6 0 19.7-16 35.6-35.6 35.6-19.7 0-35.7-16-35.7-35.6.1-19.6 16-35.6 35.7-35.6m69.3 98.3h58.9v27h.8c8.2-15.6 28.3-31.9 58.2-31.9 62.2 0 73.7 40.9 73.7 94.2v108.4H337v-96.1c0-22.9-.5-52.4-32-52.4-32 0-36.9 25-36.9 50.7v97.8h-61.4V199.7z"/></svg>