<svg xmlns="http://www.w3.org/2000/svg" width="150" height="1200" viewBox="0 0 150 1200"><path fill="#00A9D7" d="M-23.094 851.65c-.217 1.634-.521 3.207-.644 4.896-5.694 42.976-8.606 86.751-8.606 130.001a994.888 994.888 0 0 0 35.285 262.648c10.161 36.851 22.799 73.208 37.038 108.294 6.736-15.847 13.965-31.443 21.47-46.871-9.08-24.705-16.813-48.345-23.158-71.191-22.542-82.106-33.947-167.135-33.947-252.88 0-41.729 2.856-83.835 8.235-125.258C39.685 655.122 136.041 460.152 283.924 312.51 409.853 186.836 564.907 100.65 733.767 60.293L349.333-161.622c-43.956-25.371-112.818-25.371-156.67 0L-171.698 48.641c163.526 42.031 310.481 125.691 428.62 239.05C105.17 439.757 5.795 639.737-23.094 851.65"/></svg>